<svg width="320" height="165" viewBox="0 0 320 165" fill="none" xmlns="http://www.w3.org/2000/svg">
<rect x="-19" y="-5" width="556" height="71" fill="#FBDCE2"/>
<path d="M-6.50392 139.358C-65.5186 185.798 -138.091 158.708 -167 139.358V-7H470V131.948C413.378 182.834 348.049 158.091 322.463 139.358C195.861 18.3194 67.2645 81.3091 -6.50392 139.358Z" fill="#FBDCE2"/>
<g clip-path="url(#clip0_418_2976)">
<path d="M279.247 108.894L265.001 100.67C263.69 99.913 262.014 100.362 261.257 101.673L251.661 118.293C250.904 119.604 251.354 121.281 252.665 122.038L266.91 130.262C268.221 131.019 269.898 130.57 270.655 129.259L280.25 112.639C281.007 111.328 280.558 109.651 279.247 108.894Z" stroke="#005C66" stroke-width="1.71429" stroke-linecap="round" stroke-linejoin="round"/>
<path d="M265.136 108.662L260.338 116.971" stroke="#005C66" stroke-width="1.71429" stroke-linecap="round" stroke-linejoin="round"/>
<path d="M272.259 112.774L267.461 121.083" stroke="#005C66" stroke-width="1.71429" stroke-linecap="round" stroke-linejoin="round"/>
<path d="M263.349 128.206L259.922 134.141C259.377 135.086 258.478 135.775 257.425 136.057C256.371 136.34 255.249 136.192 254.305 135.647C253.36 135.101 252.671 134.203 252.389 133.15C252.106 132.096 252.254 130.974 252.799 130.029L256.226 124.094" stroke="#005C66" stroke-width="1.71429" stroke-linecap="round" stroke-linejoin="round"/>
</g>
<g clip-path="url(#clip1_418_2976)">
<path d="M243.811 47.8872L261.919 58.3419" stroke="#005C66" stroke-width="1.71429" stroke-linecap="round" stroke-linejoin="round"/>
<path d="M260.409 47.7814L260.295 47.6764L244.171 47.8031C244.032 47.8028 243.896 47.8366 243.773 47.9017C243.651 47.9668 243.546 48.0611 243.469 48.1762L241.995 50.7297C243.454 51.5722 245.643 52.8358 244.168 55.3894C242.694 57.9429 240.462 56.6539 239.046 55.8368L237.783 58.0255C237.671 58.219 237.641 58.449 237.698 58.6648C237.756 58.8806 237.897 59.0646 238.091 59.1763L255.601 69.2856C255.794 69.3974 256.024 69.4276 256.24 69.3698C256.456 69.312 256.64 69.1708 256.752 68.9773L262.649 58.7632C263.428 56.9206 263.631 54.8853 263.231 52.9252C262.831 50.965 261.848 49.1718 260.409 47.7814V47.7814Z" stroke="#005C66" stroke-width="1.71429" stroke-linecap="round" stroke-linejoin="round"/>
<path d="M255.014 60.1921C255.417 60.4248 255.933 60.2867 256.165 59.8838C256.398 59.4809 256.26 58.9656 255.857 58.733C255.454 58.5004 254.939 58.6384 254.706 59.0413C254.473 59.4443 254.612 59.9595 255.014 60.1921Z" stroke="#005C66" stroke-width="1.71429" stroke-linecap="round" stroke-linejoin="round"/>
<path d="M248.222 60.1619C248.625 60.3945 249.141 60.2565 249.373 59.8535C249.606 59.4506 249.468 58.9354 249.065 58.7027C248.662 58.4701 248.147 58.6081 247.914 59.0111C247.681 59.414 247.82 59.9292 248.222 60.1619Z" stroke="#005C66" stroke-width="1.71429" stroke-linecap="round" stroke-linejoin="round"/>
</g>
<g clip-path="url(#clip2_418_2976)">
<path d="M190.159 18.9942C190.721 18.0213 191.646 17.3113 192.731 17.0206C193.816 16.7298 194.973 16.882 195.945 17.4437C196.918 18.0055 197.628 18.9307 197.919 20.0159C198.21 21.101 198.058 22.2573 197.496 23.2302L187.612 40.3498C187.05 41.3227 186.898 42.4789 187.189 43.5641C187.48 44.6493 188.19 45.5745 189.162 46.1362C190.135 46.698 191.292 46.8502 192.377 46.5594C193.462 46.2686 194.387 45.5587 194.949 44.5857L204.833 27.4662C206.518 24.5474 206.975 21.0787 206.102 17.8231C205.23 14.5676 203.1 11.792 200.181 10.1068C197.263 8.42161 193.794 7.96495 190.538 8.83726C187.283 9.70957 184.507 11.8394 182.822 14.7582L181.41 17.2039C180.848 18.1768 180.696 19.3331 180.987 20.4182C181.278 21.5034 181.988 22.4286 182.961 22.9904C183.933 23.5521 185.09 23.7043 186.175 23.4135C187.26 23.1228 188.185 22.4128 188.747 21.4399L190.159 18.9942Z" stroke="#005C66" stroke-width="1.71429" stroke-linecap="round" stroke-linejoin="round"/>
<path d="M190.436 35.4584L202.009 32.3574" stroke="#005C66" stroke-width="1.71429" stroke-linecap="round" stroke-linejoin="round"/>
<path d="M197.992 21.9189L205.843 16.9624" stroke="#005C66" stroke-width="1.71429" stroke-linecap="round" stroke-linejoin="round"/>
<path d="M192.423 17.1058L187.112 10.3218" stroke="#005C66" stroke-width="1.71429" stroke-linecap="round" stroke-linejoin="round"/>
</g>
<g clip-path="url(#clip3_418_2976)">
<path d="M120.674 94.4057L117.079 100.632C116.698 101.292 116.07 101.774 115.333 101.971C114.597 102.169 113.812 102.065 113.151 101.684C112.491 101.303 112.009 100.675 111.811 99.9381C111.614 99.2014 111.717 98.4165 112.099 97.756L115.693 91.5302" stroke="#005C66" stroke-width="1.71429" stroke-linecap="round" stroke-linejoin="round"/>
<path d="M135.097 79.4896C133.941 78.8222 133.097 77.7231 132.752 76.4339C132.406 75.1447 132.587 73.7712 133.255 72.6153C133.535 72.1434 133.891 71.7208 134.309 71.3645C133.598 70.5565 132.766 69.8634 131.843 69.3098C129.531 67.9751 126.784 67.6134 124.205 68.3043C121.627 68.9952 119.429 70.682 118.094 72.9937L110.905 85.4454C110.524 86.1058 110.421 86.8907 110.618 87.6274C110.815 88.3641 111.297 88.9922 111.958 89.3735L124.409 96.5625C125.07 96.9438 125.855 97.0471 126.591 96.8498C127.328 96.6524 127.956 96.1704 128.338 95.5099L135.527 83.0582C136.049 82.1172 136.423 81.101 136.635 80.0457C136.095 79.946 135.575 79.7581 135.097 79.4896V79.4896Z" stroke="#005C66" stroke-width="1.71429" stroke-linecap="round" stroke-linejoin="round"/>
</g>
<g clip-path="url(#clip4_418_2976)">
<path d="M44.7811 100.543L43.9532 76.5556C43.9474 76.3078 44.0072 76.0628 44.1266 75.8455C44.246 75.6283 44.4208 75.4464 44.6331 75.3185C44.8455 75.1905 45.0879 75.121 45.3358 75.1169C45.5836 75.1128 45.8282 75.1744 46.0446 75.2953L66.0149 86.8251C66.2279 86.9521 66.4034 87.1331 66.5239 87.3499C66.6443 87.5666 66.7053 87.8113 66.7006 88.0592C66.696 88.307 66.6259 88.5493 66.4974 88.7613C66.369 88.9734 66.1867 89.1477 65.9692 89.2666L44.7811 100.543Z" stroke="#005C66" stroke-width="1.71429" stroke-linecap="round" stroke-linejoin="round"/>
<path d="M44.7811 100.543L37.7507 112.72" stroke="#005C66" stroke-width="1.71429" stroke-linecap="round" stroke-linejoin="round"/>
<path d="M31.6622 109.205L43.8392 116.236" stroke="#005C66" stroke-width="1.71429" stroke-linecap="round" stroke-linejoin="round"/>
<path d="M44.1368 82.3118L60.8924 91.9856" stroke="#005C66" stroke-width="1.71429" stroke-linecap="round" stroke-linejoin="round"/>
</g>
<g clip-path="url(#clip5_418_2976)">
<path d="M106.65 38.0831L105.69 43.3488" stroke="#005C66" stroke-width="1.71429" stroke-linecap="round" stroke-linejoin="round"/>
<path d="M110.651 15.925L110.274 18.0356" stroke="#005C66" stroke-width="1.71429" stroke-linecap="round" stroke-linejoin="round"/>
<path d="M106.65 38.0832L103.86 35.4078" stroke="#005C66" stroke-width="1.71429" stroke-linecap="round" stroke-linejoin="round"/>
<path d="M106.65 38.0831L110.192 36.5373" stroke="#005C66" stroke-width="1.71429" stroke-linecap="round" stroke-linejoin="round"/>
<path d="M107.591 32.8067L104.812 30.1128" stroke="#005C66" stroke-width="1.71429" stroke-linecap="round" stroke-linejoin="round"/>
<path d="M107.591 32.8067L111.152 31.2716" stroke="#005C66" stroke-width="1.71429" stroke-linecap="round" stroke-linejoin="round"/>
<path d="M108.561 27.5224L105.772 24.847" stroke="#005C66" stroke-width="1.71429" stroke-linecap="round" stroke-linejoin="round"/>
<path d="M108.561 27.5225L112.093 25.9952" stroke="#005C66" stroke-width="1.71429" stroke-linecap="round" stroke-linejoin="round"/>
<path d="M109.503 22.246L106.713 19.5706" stroke="#005C66" stroke-width="1.71429" stroke-linecap="round" stroke-linejoin="round"/>
<path d="M109.503 22.246L113.064 20.7109" stroke="#005C66" stroke-width="1.71429" stroke-linecap="round" stroke-linejoin="round"/>
<path d="M114.686 41.2368L111.233 44.8154" stroke="#005C66" stroke-width="1.71429" stroke-linecap="round" stroke-linejoin="round"/>
<path d="M129.166 26.1936L127.792 27.6293" stroke="#005C66" stroke-width="1.71429" stroke-linecap="round" stroke-linejoin="round"/>
<path d="M114.686 41.2368L113.916 37.7218" stroke="#005C66" stroke-width="1.71429" stroke-linecap="round" stroke-linejoin="round"/>
<path d="M114.685 41.2368L118.202 41.8803" stroke="#005C66" stroke-width="1.71429" stroke-linecap="round" stroke-linejoin="round"/>
<path d="M118.12 37.6474L117.369 34.1432" stroke="#005C66" stroke-width="1.71429" stroke-linecap="round" stroke-linejoin="round"/>
<path d="M118.12 37.6475L121.666 38.2831" stroke="#005C66" stroke-width="1.71429" stroke-linecap="round" stroke-linejoin="round"/>
<path d="M121.573 34.0688L120.822 30.5646" stroke="#005C66" stroke-width="1.71429" stroke-linecap="round" stroke-linejoin="round"/>
<path d="M121.573 34.0687L125.119 34.7044" stroke="#005C66" stroke-width="1.71429" stroke-linecap="round" stroke-linejoin="round"/>
<path d="M125.026 30.4901L124.275 26.9858" stroke="#005C66" stroke-width="1.71429" stroke-linecap="round" stroke-linejoin="round"/>
<path d="M125.026 30.4901L128.572 31.1258" stroke="#005C66" stroke-width="1.71429" stroke-linecap="round" stroke-linejoin="round"/>
</g>
<g clip-path="url(#clip6_418_2976)">
<path d="M182.65 92.0833L181.69 97.349" stroke="#005C66" stroke-width="1.71429" stroke-linecap="round" stroke-linejoin="round"/>
<path d="M186.651 69.925L186.274 72.0356" stroke="#005C66" stroke-width="1.71429" stroke-linecap="round" stroke-linejoin="round"/>
<path d="M182.65 92.0832L179.86 89.4078" stroke="#005C66" stroke-width="1.71429" stroke-linecap="round" stroke-linejoin="round"/>
<path d="M182.65 92.0833L186.192 90.5375" stroke="#005C66" stroke-width="1.71429" stroke-linecap="round" stroke-linejoin="round"/>
<path d="M183.591 86.8067L180.812 84.1128" stroke="#005C66" stroke-width="1.71429" stroke-linecap="round" stroke-linejoin="round"/>
<path d="M183.591 86.8068L187.152 85.2717" stroke="#005C66" stroke-width="1.71429" stroke-linecap="round" stroke-linejoin="round"/>
<path d="M184.561 81.5225L181.772 78.8472" stroke="#005C66" stroke-width="1.71429" stroke-linecap="round" stroke-linejoin="round"/>
<path d="M184.561 81.5225L188.093 79.9952" stroke="#005C66" stroke-width="1.71429" stroke-linecap="round" stroke-linejoin="round"/>
<path d="M185.503 76.246L182.713 73.5707" stroke="#005C66" stroke-width="1.71429" stroke-linecap="round" stroke-linejoin="round"/>
<path d="M185.503 76.246L189.064 74.7109" stroke="#005C66" stroke-width="1.71429" stroke-linecap="round" stroke-linejoin="round"/>
<path d="M190.686 95.2368L187.233 98.8154" stroke="#005C66" stroke-width="1.71429" stroke-linecap="round" stroke-linejoin="round"/>
<path d="M205.166 80.1936L203.792 81.6293" stroke="#005C66" stroke-width="1.71429" stroke-linecap="round" stroke-linejoin="round"/>
<path d="M190.686 95.2368L189.916 91.7218" stroke="#005C66" stroke-width="1.71429" stroke-linecap="round" stroke-linejoin="round"/>
<path d="M190.685 95.2367L194.202 95.8802" stroke="#005C66" stroke-width="1.71429" stroke-linecap="round" stroke-linejoin="round"/>
<path d="M194.12 91.6473L193.369 88.1431" stroke="#005C66" stroke-width="1.71429" stroke-linecap="round" stroke-linejoin="round"/>
<path d="M194.12 91.6473L197.666 92.283" stroke="#005C66" stroke-width="1.71429" stroke-linecap="round" stroke-linejoin="round"/>
<path d="M197.573 88.0687L196.822 84.5645" stroke="#005C66" stroke-width="1.71429" stroke-linecap="round" stroke-linejoin="round"/>
<path d="M197.573 88.0687L201.119 88.7044" stroke="#005C66" stroke-width="1.71429" stroke-linecap="round" stroke-linejoin="round"/>
<path d="M201.026 84.4901L200.275 80.9858" stroke="#005C66" stroke-width="1.71429" stroke-linecap="round" stroke-linejoin="round"/>
<path d="M201.026 84.4901L204.572 85.1258" stroke="#005C66" stroke-width="1.71429" stroke-linecap="round" stroke-linejoin="round"/>
</g>
<g clip-path="url(#clip7_418_2976)">
<path d="M286.649 31.0831L285.69 36.3488" stroke="#005C66" stroke-width="1.71429" stroke-linecap="round" stroke-linejoin="round"/>
<path d="M290.651 8.92499L290.274 11.0356" stroke="#005C66" stroke-width="1.71429" stroke-linecap="round" stroke-linejoin="round"/>
<path d="M286.649 31.0832L283.86 28.4078" stroke="#005C66" stroke-width="1.71429" stroke-linecap="round" stroke-linejoin="round"/>
<path d="M286.649 31.0831L290.192 29.5373" stroke="#005C66" stroke-width="1.71429" stroke-linecap="round" stroke-linejoin="round"/>
<path d="M287.591 25.8067L284.812 23.1128" stroke="#005C66" stroke-width="1.71429" stroke-linecap="round" stroke-linejoin="round"/>
<path d="M287.591 25.8067L291.152 24.2716" stroke="#005C66" stroke-width="1.71429" stroke-linecap="round" stroke-linejoin="round"/>
<path d="M288.561 20.5224L285.772 17.847" stroke="#005C66" stroke-width="1.71429" stroke-linecap="round" stroke-linejoin="round"/>
<path d="M288.561 20.5224L292.093 18.9952" stroke="#005C66" stroke-width="1.71429" stroke-linecap="round" stroke-linejoin="round"/>
<path d="M289.502 15.246L286.713 12.5706" stroke="#005C66" stroke-width="1.71429" stroke-linecap="round" stroke-linejoin="round"/>
<path d="M289.502 15.246L293.063 13.7109" stroke="#005C66" stroke-width="1.71429" stroke-linecap="round" stroke-linejoin="round"/>
<path d="M294.685 34.2368L291.232 37.8154" stroke="#005C66" stroke-width="1.71429" stroke-linecap="round" stroke-linejoin="round"/>
<path d="M309.166 19.1936L307.792 20.6294" stroke="#005C66" stroke-width="1.71429" stroke-linecap="round" stroke-linejoin="round"/>
<path d="M294.685 34.2368L293.916 30.7218" stroke="#005C66" stroke-width="1.71429" stroke-linecap="round" stroke-linejoin="round"/>
<path d="M294.685 34.2368L298.202 34.8803" stroke="#005C66" stroke-width="1.71429" stroke-linecap="round" stroke-linejoin="round"/>
<path d="M298.12 30.6474L297.369 27.1432" stroke="#005C66" stroke-width="1.71429" stroke-linecap="round" stroke-linejoin="round"/>
<path d="M298.12 30.6475L301.666 31.2831" stroke="#005C66" stroke-width="1.71429" stroke-linecap="round" stroke-linejoin="round"/>
<path d="M301.573 27.0688L300.822 23.5645" stroke="#005C66" stroke-width="1.71429" stroke-linecap="round" stroke-linejoin="round"/>
<path d="M301.573 27.0687L305.119 27.7044" stroke="#005C66" stroke-width="1.71429" stroke-linecap="round" stroke-linejoin="round"/>
<path d="M305.026 23.4902L304.275 19.9859" stroke="#005C66" stroke-width="1.71429" stroke-linecap="round" stroke-linejoin="round"/>
<path d="M305.026 23.4901L308.572 24.1258" stroke="#005C66" stroke-width="1.71429" stroke-linecap="round" stroke-linejoin="round"/>
</g>
<path d="M49.202 24.397L51.9328 25.9736C52.657 26.3917 53.2089 27.0399 53.467 27.7755C53.7251 28.5112 53.6683 29.274 53.3091 29.8962L43.8279 46.318C43.4687 46.9402 42.8365 47.3708 42.0704 47.5151C41.3042 47.6594 40.4669 47.5056 39.7427 47.0874L23.3581 37.6277C22.6338 37.2096 22.082 36.5614 21.8238 35.8258C21.5657 35.0902 21.6225 34.3273 21.9818 33.7052L31.4629 17.2833C31.8222 16.6611 32.4544 16.2305 33.2205 16.0862C33.9866 15.9419 34.8239 16.0958 35.5482 16.5139L38.2789 18.0905" stroke="#005C66" stroke-width="2" stroke-linecap="round" stroke-linejoin="round"/>
<path d="M39.2076 29.0958L44.5699 32.1917M35.6142 35.3199L40.9764 38.4158M33.8454 25.9999L33.8588 26.0077M30.252 32.224L30.2654 32.2317M49.6975 20.2145L41.6542 15.5707C41.2986 15.3654 40.8819 15.2997 40.4957 15.388C40.1096 15.4763 39.7855 15.7114 39.5949 16.0415L38.1575 18.5311C37.9669 18.8613 37.9254 19.2594 38.042 19.638C38.1586 20.0166 38.4239 20.3446 38.7794 20.5499L46.8228 25.1937C47.1783 25.399 47.595 25.4647 47.9812 25.3764C48.3674 25.2881 48.6914 25.053 48.882 24.7229L50.3194 22.2333C50.51 21.9031 50.5516 21.505 50.4349 21.1264C50.3183 20.7478 50.0531 20.4198 49.6975 20.2145Z" stroke="#005C66" stroke-width="2" stroke-linecap="round" stroke-linejoin="round"/>
<defs>
<clipPath id="clip0_418_2976">
<rect width="38.3805" height="38.3805" fill="white" transform="translate(256.19 94) rotate(30)"/>
</clipPath>
<clipPath id="clip1_418_2976">
<rect width="23.5884" height="23.5884" fill="white" transform="translate(247.794 39) rotate(30)"/>
</clipPath>
<clipPath id="clip2_418_2976">
<rect width="39.5359" height="39.5359" fill="white" transform="translate(183.768 -1) rotate(30)"/>
</clipPath>
<clipPath id="clip3_418_2976">
<rect width="40.2583" height="40.2583" fill="white" transform="translate(115.129 58) rotate(30)"/>
</clipPath>
<clipPath id="clip4_418_2976">
<rect width="39.3702" height="39.3702" fill="white" transform="translate(39.6851 70) rotate(30)"/>
</clipPath>
<clipPath id="clip5_418_2976">
<rect width="30.0266" height="30.0266" fill="white" transform="translate(108.013 12) rotate(30)"/>
</clipPath>
<clipPath id="clip6_418_2976">
<rect width="30.0266" height="30.0266" fill="white" transform="translate(184.013 66) rotate(30)"/>
</clipPath>
<clipPath id="clip7_418_2976">
<rect width="30.0266" height="30.0266" fill="white" transform="translate(288.013 5) rotate(30)"/>
</clipPath>
</defs>
</svg>
